<?xml version="1.0" encoding="UTF-8"?><svg id="Layer_2" xmlns="http://www.w3.org/2000/svg" viewBox="0 0 800 800"><defs><style>.cls-1{fill:#fff;}.cls-2{fill:#00aeef;}</style></defs><g id="Layer_1-2"><rect class="cls-1" width="800" height="800"/><path class="cls-2" d="M642.07,388.02c-58.31-27.63-127.97-2.75-155.6,55.56-4.03,8.51-6.91,17.27-8.76,26.09l67.8,32.13c-1.65-9.33-.56-19.24,3.8-28.45,11.18-23.61,39.39-33.68,62.99-22.5,23.62,11.19,33.69,39.39,22.5,63-11.11,23.45-39.02,33.52-62.53,22.69l-125.19-59.31,.02-.05-.27-.12,61.64-130.14c22.87-56.89-2.25-122.46-58.4-149.05-58.31-27.63-127.97-2.76-155.6,55.56-27.62,58.3-2.75,127.97,55.56,155.59,8.52,4.04,17.27,6.91,26.1,8.78l32.12-67.8c-9.33,1.65-19.24,.56-28.46-3.8-23.61-11.18-33.68-39.39-22.5-63,11.19-23.61,39.39-33.68,63-22.5,23.45,11.11,33.52,39.01,22.69,62.52l-58.83,124.16-130.9-62c-56.89-22.88-122.46,2.25-149.05,58.4-27.63,58.31-2.76,127.97,55.55,155.6,58.31,27.62,127.97,2.75,155.6-55.56,4.03-8.51,6.91-17.27,8.77-26.1l-67.8-32.12c1.65,9.33,.56,19.24-3.8,28.45-11.18,23.61-39.39,33.68-62.99,22.5-23.61-11.19-33.68-39.39-22.5-63,11.11-23.45,39.01-33.52,62.53-22.69l124.93,59.19-.02,.04,62.66,29.69h0s131.43,62.25,131.43,62.25c56.89,22.88,122.46-2.25,149.05-58.4,27.63-58.31,2.76-127.97-55.56-155.6Z"/></g></svg>